<?xml version="1.0" encoding="UTF-8" standalone="no"?>
<!-- Created with Inkscape (http://www.inkscape.org/) -->

<svg
   width="210mm"
   height="297mm"
   viewBox="0 0 210 297"
   version="1.1"
   id="svg1"
   xml:space="preserve"
   xmlns:xlink="http://www.w3.org/1999/xlink"
   xmlns="http://www.w3.org/2000/svg"
   xmlns:svg="http://www.w3.org/2000/svg"><defs
     id="defs1"><linearGradient
       id="linearGradient975"><stop
         style="stop-color:#ea7400;stop-opacity:1;"
         offset="0"
         id="stop975" /><stop
         style="stop-color:#ffac00;stop-opacity:1;"
         offset="1"
         id="stop976" /></linearGradient><linearGradient
       xlink:href="#linearGradient975"
       id="linearGradient976"
       x1="105.35101"
       y1="63.155899"
       x2="104.7015"
       y2="155.96071"
       gradientUnits="userSpaceOnUse" /></defs><g
     id="layer1"
     style="display:inline"><path
       id="rect976"
       style="display:inline;opacity:1;fill:#ffac00;stroke-width:0.264583"
       d="m 69.985123,82.019318 h 71.520587 v 53.904792 c -24.20154,7.36996 -48.034111,7.21434 -71.520587,0 z" /><path
       id="path982"
       style="display:inline;opacity:1;fill:#e83b00;fill-opacity:1;stroke-width:0.264583"
       d="m 140.55215,101.61456 -14.71715,7.65011 -20.56706,49.64686 c 13.73355,26.47359 11.84629,48.3307 69.72591,-23.15061 z" /><path
       id="rect982"
       style="display:inline;opacity:1;fill:#e83b00;fill-opacity:1;stroke-width:0.264583"
       d="m 69.577106,101.45044 14.680409,7.86371 20.567055,49.64686 C 91.091022,185.4346 92.96875,207.55924 35.089133,136.07793 Z" /><path
       id="rect968"
       style="display:inline;opacity:1;fill:#feffeb;fill-opacity:1;stroke-width:0.264583"
       d="m 20.528286,173.50351 40.564398,0.0513 43.938486,46.89396 43.72411,-47.0037 39.80863,0.0783 -69.06726,58.09735 -10.57605,7.32887 -9.280776,-0.0866 z" /><path
       id="rect971"
       style="display:inline;opacity:1;fill:#461e20;fill-opacity:1;stroke-width:0.264583"
       d="m 89.954041,217.11227 h 30.123529 v 11.67772 c -1.4354,16.02636 -27.157083,18.30197 -30.123529,0 z" /><path
       id="rect969"
       style="display:inline;opacity:1;fill:#feffeb;fill-opacity:1;stroke-width:0.264583"
       d="m 90.105637,217.16405 h 14.573543 v 4.77982 c -1.72417,6.96357 -11.654579,8.09458 -14.573543,0 z" /><path
       id="rect972"
       style="display:inline;opacity:1;fill:#ea7400;fill-opacity:1;stroke-width:0.264583"
       d="m 89.72979,134.02854 c -0.980953,-4.63995 -2.894298,-10.77423 -4.699806,-14.19329 -1.550036,-2.93529 -4.430229,-7.37755 -7.928719,-11.13949 -3.693992,-3.97216 -8.016823,-6.72147 -7.412418,-7.19848 1.82992,-1.44421 7.008499,-0.7016 11.553686,1.06539 4.654073,1.80932 8.663609,4.66761 9.427056,5.18206 2.237306,1.50763 7.207256,6.70962 10.531511,15.02166 2.55988,6.40078 3.9993,14.75902 3.79591,23.99748 l -0.0857,70.34251 H 89.917969 l 0.369673,-65.62766 z" /><path
       id="path973"
       style="display:inline;opacity:1;fill:url(#linearGradient976);stroke-width:0.264583"
       d="m 120.14668,134.07913 c 0.98096,-4.63995 3.00149,-10.81497 4.807,-14.23403 1.55003,-2.93529 4.43023,-7.37755 7.92872,-11.13949 3.69399,-3.97216 8.01682,-6.72147 7.41242,-7.19848 -1.82992,-1.44421 -7.0085,-0.7016 -11.55369,1.06539 -4.65407,1.80932 -8.66361,4.66761 -9.42706,5.18206 -2.2373,1.50763 -7.20725,6.70962 -10.53151,15.02166 -2.55988,6.40078 -3.98872,14.74436 -3.78533,23.98282 l -0.0804,70.36128 14.83796,-0.0488 -0.64879,-68.35497 z" /><path
       id="rect977"
       style="display:inline;opacity:1;fill:#ffac00;fill-opacity:1;stroke-width:0.264583"
       d="m 31.205464,143.45931 29.885353,30.23238 -21.611526,-0.17062 -25.121645,0.23422 z" /><path
       id="use980"
       style="display:inline;fill:#ff5f00;fill-opacity:1;stroke-width:0.264583"
       d="m 161.97546,133.97336 c -11.43548,0.45725 -19.12064,4.76313 -24.96696,9.43645 -3.92862,3.14039 -9.06326,7.51225 -12.41217,13.63399 -1.84713,3.37653 -4.22767,11.65487 -4.3907,15.19796 l -0.76326,9.75497 55.75126,-46.10095 c -4.15255,-1.73968 -8.52008,-2.54751 -13.21817,-1.92242 z" /><path
       id="rect979"
       style="display:inline;opacity:1;fill:#ea7400;fill-opacity:1;stroke-width:0.264583"
       d="m 119.37739,182.35467 c 2.76061,-7.78865 6.82882,-13.87028 13.50094,-16.55255 0.15,4.21703 -1.17918,11.70478 2.35763,22.40823 l -15.56957,17.02228 z" /><path
       id="path977"
       style="display:inline;opacity:1;fill:#ffac00;fill-opacity:1;stroke-width:0.264583"
       d="m 178.66761,143.1107 16.83783,30.45325 -21.59147,-0.10198 -25.13686,-0.0284 z" /><path
       id="rect978"
       style="display:inline;opacity:1;fill:#f39200;fill-opacity:1;stroke-width:0.264583"
       d="m 132.9089,165.7252 c 12.2475,-13.00886 29.11464,-31.20285 42.07177,-29.78081 l 3.6771,7.18022 c -10.1433,10.92442 -19.7319,20.14487 -29.86407,30.31949 l -13.51793,14.79483 -2.83277,-9.664 c -0.47367,-4.70148 -0.43323,-9.06111 0.4659,-12.84973 z" /><path
       id="rect980"
       style="display:inline;opacity:1;fill:#ff5f00;fill-opacity:1;stroke-width:0.264583"
       d="m 48.315612,134.17015 c 11.435474,0.45725 19.120635,4.76313 24.966955,9.43645 3.928618,3.14039 9.613403,7.98019 12.217531,13.90174 1.935572,4.40131 4.124668,11.5335 4.2877,15.07659 l 0.524436,8.85376 -55.214798,-45.34612 c 4.152555,-1.73968 8.520083,-2.54751 13.218176,-1.92242 z" /><path
       id="path978"
       style="display:inline;opacity:1;fill:#f39200;fill-opacity:1;stroke-width:0.264583"
       d="M 77.131096,165.92218 C 64.8836,152.91332 48.01646,134.71933 35.05933,136.14137 l -3.849997,7.31996 c 9.470125,10.17048 19.95649,20.17167 29.905767,30.19902 l 13.649126,14.77556 2.83277,-9.664 c 0.47367,-4.70148 0.43323,-9.06111 -0.4659,-12.84973 z" /><path
       id="path979"
       style="display:inline;opacity:1;fill:#c13700;fill-opacity:1;stroke-width:0.264583"
       d="m 90.194365,182.38275 c -2.217027,-8.66294 -6.676784,-14.07285 -13.348904,-16.75512 -0.15,4.21703 1.381639,12.00414 -2.155171,22.70759 l 15.342996,16.95399 z" /><path
       id="rect981"
       style="display:inline;opacity:1;fill:#461f21;fill-opacity:1;stroke-width:0.264583"
       d="m 121.31417,166.24856 c 3.06464,-11.82114 8.34659,-20.52365 21.84082,-22.32747 l 12.59569,0.0737 c -6.03481,5.39308 -9.09891,12.61603 -15.07758,18.00472 -3.69916,3.33412 -8.49675,3.69217 -12.39532,6.59771 -4.0694,3.03288 -7.49684,9.97649 -8.7335,13.25167 -0.0579,-4.29116 0.36025,-10.72377 1.76989,-15.60033 z" /><path
       id="path981"
       style="display:inline;opacity:1;fill:#461f21;fill-opacity:1;stroke-width:0.264583"
       d="m 88.425303,165.80984 c -3.06464,-11.82114 -8.34659,-20.52365 -21.84082,-22.32747 l -12.59569,0.0737 c 6.03481,5.39308 9.09891,12.61603 15.07758,18.00472 3.69916,3.33412 8.49675,3.69217 12.39532,6.59771 4.0694,3.03288 7.49684,9.97649 8.7335,13.25167 0.0579,-4.29116 -0.36025,-10.72377 -1.76989,-15.60033 z" /><path
       id="rect983"
       style="display:inline;opacity:1;fill:#441d21;fill-opacity:1;stroke-width:0.264583"
       d="m 35.010247,48.625424 22.07079,39.938771 12.590352,12.845595 -34.597164,34.7336 z" /><path
       id="path983"
       style="display:inline;opacity:1;fill:#441d21;fill-opacity:1;stroke-width:0.264583"
       d="m 175.14616,48.806337 -22.07079,39.938771 -12.59035,12.845592 34.58446,34.30338 z" /><path
       id="rect984"
       style="display:inline;opacity:1;fill:#fea900;fill-opacity:1;stroke-width:0.264583"
       d="M 35.007928,48.635328 88.802406,81.957057 71.62749,93.027703 57.094957,88.619441 Z" /><path
       id="path984"
       style="display:inline;opacity:1;fill:#e73a00;fill-opacity:1;stroke-width:0.264583"
       d="M 175.18374,48.748013 120.68049,81.863025 137.8554,92.933671 153.17477,88.71743 Z" /><path
       id="rect985"
       style="display:inline;opacity:1;fill:#c13600;fill-opacity:1;stroke-width:0.264583"
       d="m 136.19972,82.279452 c 5.99195,0.965922 12.07373,2.862763 16.69372,6.759998 l -12.37858,12.68407 -20.62464,-19.830603 c 5.57346,0.01735 10.52768,-0.08681 16.3095,0.386535 z" /><path
       id="rect986"
       style="display:inline;opacity:1;fill:#eb7a00;fill-opacity:1;stroke-width:0.264583"
       d="m 72.071464,82.6937 c 5.35195,-1.061884 10.28593,-1.43248 16.733703,-0.720134 L 69.709463,101.54131 57.145812,88.685549 c 4.536959,-2.686132 9.229712,-5.276283 14.925652,-5.991849 z" /></g></svg>
